<?xml version="1.0" standalone="no"?>
<!DOCTYPE svg PUBLIC "-//W3C//DTD SVG 20010904//EN"
 "http://www.w3.org/TR/2001/REC-SVG-20010904/DTD/svg10.dtd">
<svg version="1.0" xmlns="http://www.w3.org/2000/svg"
 width="2048.000000pt" height="2048.000000pt" viewBox="0 0 2048.000000 2048.000000"
 preserveAspectRatio="xMidYMid meet">

<g transform="translate(0.000000,2048.000000) scale(0.100000,-0.100000)"
fill="#000000" stroke="none">
<path d="M4925 16055 c-241 -53 -428 -226 -512 -475 -17 -53 -18 -189 -21
-3824 -1 -2074 1 -3773 5 -3777 5 -4 114 95 243 219 129 124 403 385 608 579
l372 355 0 2854 0 2854 1760 0 1760 0 433 211 c237 116 485 236 549 266 l118
56 87 -41 c49 -22 296 -142 551 -266 l463 -226 1759 0 1760 0 0 -775 c0 -426
2 -775 4 -775 2 0 124 78 270 173 147 94 422 270 611 391 l345 219 0 701 c0
784 0 778 -69 920 -83 169 -218 285 -406 348 l-70 23 -5280 2 c-4349 1 -5291
-1 -5340 -12z"/>
<path d="M10174 14408 c-113 -67 -735 -370 -918 -448 -794 -338 -1674 -627
-2357 -774 l-77 -17 -6 -82 c-10 -137 1 -1880 13 -2062 40 -619 166 -1232 340
-1652 57 -139 58 -140 596 -708 188 -198 377 -400 421 -448 l79 -88 3 2038 2
2038 193 54 c521 146 1017 334 1565 593 l213 101 147 -71 c240 -115 443 -204
687 -302 253 -102 770 -276 993 -336 l142 -38 0 -408 c0 -224 3 -408 8 -408 4
0 48 33 97 73 211 171 812 628 1209 919 l146 108 -2 337 -3 337 -30 8 c-16 4
-139 35 -271 67 -960 238 -1866 571 -2729 1003 -154 77 -284 143 -290 147 -5
4 -30 19 -56 34 l-45 26 -70 -41z"/>
<path d="M15830 13239 c-437 -253 -870 -529 -1421 -905 -680 -463 -1116 -779
-1694 -1228 -408 -316 -1235 -992 -1769 -1446 -379 -321 -589 -501 -706 -604
-378 -334 -483 -426 -660 -586 -201 -180 -363 -328 -555 -506 -60 -56 -183
-168 -271 -250 -89 -82 -232 -216 -318 -298 l-156 -148 -98 103 c-54 57 -191
201 -303 320 -698 740 -1291 1363 -1300 1367 -8 3 -174 -147 -374 -338 -60
-58 -267 -253 -458 -434 l-349 -329 59 -61 c93 -98 736 -749 1578 -1596 429
-432 886 -895 1015 -1028 l235 -243 55 58 c49 51 303 338 689 777 68 78 181
204 251 281 141 157 631 712 879 998 143 164 166 187 192 187 77 0 338 23 464
41 496 70 912 226 1306 488 327 217 573 462 822 819 187 268 318 533 446 907
128 370 215 828 255 1340 l14 180 224 219 c682 668 1623 1555 1978 1865 181
158 207 181 200 181 -3 0 -106 -59 -230 -131z"/>
<path d="M15920 12443 c-91 -80 -273 -243 -404 -362 -320 -288 -551 -495 -608
-544 l-48 -40 0 -2879 0 -2878 -2487 0 -2488 0 -295 -326 c-162 -179 -408
-450 -546 -602 l-251 -277 3331 -3 c3755 -3 3411 -10 3591 78 144 69 238 170
315 332 65 138 61 -173 58 3925 l-3 3722 -165 -146z"/>
<path d="M4392 6524 l3 -1429 27 -80 c39 -113 91 -198 178 -286 84 -84 147
-124 265 -166 l80 -28 1418 -3 c1224 -2 1417 -1 1410 12 -8 14 -382 400 -904
934 l-257 262 -496 0 -496 0 0 498 0 497 -615 609 -615 608 2 -1428z"/>
</g>
</svg>
