<?xml version="1.0" standalone="no"?>
<!DOCTYPE svg PUBLIC "-//W3C//DTD SVG 20010904//EN"
 "http://www.w3.org/TR/2001/REC-SVG-20010904/DTD/svg10.dtd">
<svg version="1.0" xmlns="http://www.w3.org/2000/svg"
 width="3614.000000pt" height="1184.000000pt" viewBox="0 0 3614.000000 1184.000000"
 preserveAspectRatio="xMidYMid meet">

<g transform="translate(0.000000,1184.000000) scale(0.100000,-0.100000)"
fill="#000000" stroke="none">
<path d="M7620 8174 c-47 -13 -229 -64 -405 -112 l-320 -89 -3 -421 -2 -422
-330 0 -330 0 0 -52 c-2 -172 0 -622 3 -624 5 -5 2382 -11 2420 -6 l37 5 0
338 0 339 -485 0 -485 0 0 535 c0 294 -3 535 -7 534 -5 0 -46 -12 -93 -25z"/>
<path d="M15470 7195 c-254 -31 -466 -114 -672 -262 -74 -53 -195 -170 -251
-243 l-27 -35 0 191 c0 105 -3 212 -6 238 l-7 46 -401 -2 -401 -3 -2 -580 c-2
-319 1 -586 5 -592 8 -13 179 31 722 186 113 33 252 71 310 86 81 21 117 36
157 66 289 215 703 264 999 118 236 -116 388 -337 450 -654 16 -82 18 -185 21
-1152 l4 -1063 409 0 410 0 0 1048 c0 642 -4 1100 -11 1183 -25 328 -117 618
-267 844 -286 430 -841 654 -1442 580z"/>
<path d="M19480 7190 c-144 -22 -229 -42 -350 -81 -512 -167 -925 -545 -1120
-1023 -104 -256 -141 -453 -141 -751 0 -325 57 -585 188 -863 138 -292 447
-602 763 -766 259 -134 494 -206 793 -241 l57 -6 0 349 0 350 -42 7 c-149 23
-338 94 -455 171 -83 55 -223 193 -281 277 -157 229 -213 419 -213 722 0 240
33 417 111 583 154 328 433 543 791 608 l89 17 0 333 0 334 -37 -1 c-21 0 -90
-9 -153 -19z"/>
<path d="M19900 6877 l0 -334 100 -16 c412 -68 732 -350 829 -733 11 -43 22
-92 23 -109 l3 -30 -956 -3 -956 -2 -16 -78 c-9 -42 -19 -109 -22 -147 -7 -80
9 -255 31 -332 l15 -53 1359 0 c748 0 1360 3 1361 8 31 438 -6 736 -128 1042
-104 261 -201 409 -392 600 -184 184 -356 297 -591 390 -186 74 -441 129 -597
130 l-63 0 0 -333z"/>
<path d="M28310 7201 c-385 -42 -704 -208 -943 -491 l-47 -55 0 238 0 237
-405 0 -405 0 0 -1795 0 -1795 410 0 c226 0 410 1 411 3 0 1 3 447 5 992 5
1068 6 1085 60 1273 81 277 280 508 532 612 159 67 405 90 572 55 261 -55 476
-236 576 -484 34 -84 72 -250 84 -370 6 -63 10 -482 10 -1092 l0 -989 410 0
410 0 0 1023 c0 1079 -5 1223 -45 1441 -120 648 -512 1056 -1132 1176 -121 23
-379 34 -503 21z"/>
<path d="M9380 6047 c0 -1153 2 -1208 50 -1430 44 -202 125 -396 238 -567 109
-165 320 -348 511 -445 185 -93 420 -145 651 -145 l109 0 20 68 c70 238 181
626 181 632 0 4 -53 10 -117 13 -148 8 -224 26 -338 82 -268 130 -431 397
-465 760 -6 67 -10 504 -10 1113 l0 1002 -415 0 -415 0 0 -1083z"/>
<path d="M12020 6098 c0 -633 -4 -1060 -10 -1102 -6 -38 -8 -71 -6 -73 2 -2
192 50 422 115 l419 120 3 986 2 986 -415 0 -415 0 0 -1032z"/>
<path d="M24840 6710 c0 -231 2 -420 4 -420 3 0 205 254 266 335 14 18 72 93
130 165 191 241 260 330 260 335 0 3 -148 5 -330 5 l-330 0 0 -420z"/>
<path d="M25620 6922 c-68 -91 -207 -271 -492 -634 l-288 -367 0 -1190 0
-1191 410 0 410 0 0 1715 c0 943 -1 1715 -2 1715 -2 0 -19 -22 -38 -48z"/>
<path d="M6893 5393 c3 -737 6 -851 21 -941 48 -286 150 -497 316 -656 224
-213 509 -316 880 -316 153 0 301 19 440 55 117 30 271 89 270 104 -1 3 -36
148 -79 321 -69 277 -81 315 -97 313 -11 -1 -57 -15 -104 -32 -114 -40 -253
-56 -359 -41 -244 33 -367 140 -434 378 -21 75 -21 94 -25 865 l-3 787 -415 0
-415 0 4 -837z"/>
<path d="M14600 5960 c-14 -5 -214 -61 -445 -125 -231 -65 -428 -121 -437
-127 -17 -8 -18 -70 -18 -1073 0 -585 3 -1070 6 -1079 5 -14 51 -16 415 -16
l408 0 4 1028 c3 999 4 1029 24 1118 18 78 63 232 79 272 6 14 0 14 -36 2z"/>
<path d="M22330 5390 l0 -350 895 0 895 0 0 350 0 350 -895 0 -895 0 0 -350z"/>
<path d="M12370 4794 c-250 -75 -456 -138 -458 -142 -10 -29 -96 -146 -146
-200 -90 -96 -225 -185 -337 -221 l-36 -12 -83 -292 c-46 -160 -93 -327 -106
-371 l-22 -78 51 6 c72 10 210 57 309 107 176 88 324 204 441 347 l62 77 7
-55 c3 -30 7 -127 7 -215 1 -88 4 -170 7 -182 l6 -23 389 0 389 0 0 695 c0
550 -3 695 -12 694 -7 0 -218 -61 -468 -135z"/>
<path d="M20820 4524 c-225 -227 -496 -350 -818 -371 l-102 -6 2 -346 3 -346
90 3 c543 17 1006 221 1370 603 95 101 120 133 111 148 -8 13 -563 391 -574
391 -4 0 -41 -34 -82 -76z"/>
</g>
</svg>
